<?xml version="1.0" standalone="no"?>
<!DOCTYPE svg PUBLIC "-//W3C//DTD SVG 20010904//EN"
 "http://www.w3.org/TR/2001/REC-SVG-20010904/DTD/svg10.dtd">
<svg version="1.0" xmlns="http://www.w3.org/2000/svg"
 width="484.000000pt" height="484.000000pt" viewBox="0 0 484.000000 484.000000"
 preserveAspectRatio="xMidYMid meet">
<metadata>
Created by potrace 1.11, written by Peter Selinger 2001-2013
</metadata>
<g transform="translate(0.000000,484.000000) scale(0.100000,-0.100000)"
fill="#000000" stroke="none">
<path d="M4053 4701 c-168 -57 -258 -214 -228 -396 8 -50 66 -150 110 -188 25
-22 114 -66 152 -74 169 -38 352 73 402 242 3 11 6 56 6 100 0 96 -28 164 -96
234 -84 87 -230 122 -346 82z"/>
<path d="M1862 4247 c-72 -9 -153 -44 -198 -87 -18 -16 -35 -26 -39 -22 -4 4
-6 3 -4 -3 1 -5 -8 -32 -21 -59 -12 -27 -23 -54 -24 -60 -1 -6 -4 -15 -7 -21
-3 -5 -11 -29 -19 -52 -7 -23 -17 -40 -23 -36 -6 3 -7 1 -4 -4 6 -10 -19 -98
-42 -148 -5 -11 -16 -40 -24 -65 -8 -25 -34 -97 -56 -160 -42 -116 -59 -162
-150 -415 -27 -77 -69 -192 -92 -255 -23 -63 -44 -125 -46 -138 -3 -12 -9 -25
-14 -28 -5 -3 -9 -13 -9 -22 0 -9 -6 -28 -13 -42 -7 -14 -19 -46 -26 -72 -8
-28 -18 -45 -24 -41 -5 3 -7 1 -4 -4 6 -10 -5 -55 -24 -98 -15 -34 -99 -272
-99 -281 0 -5 -6 -21 -14 -35 -7 -14 -17 -39 -21 -55 -11 -38 -14 -46 -40
-114 -8 -19 -28 -77 -46 -127 -19 -55 -36 -90 -42 -86 -6 3 -7 1 -3 -6 8 -12
-30 -131 -74 -236 -5 -11 -20 -56 -35 -100 -14 -44 -30 -88 -35 -97 -6 -10
-10 -25 -10 -33 0 -8 -5 -15 -12 -15 -6 0 -9 -3 -6 -6 6 -5 -36 -136 -50 -159
-4 -5 -7 -17 -9 -25 -1 -8 -9 -30 -17 -50 -34 -81 -99 -277 -104 -312 -6 -50
22 -122 64 -164 17 -18 29 -36 26 -39 -4 -4 -2 -5 3 -4 6 2 37 -10 70 -25 77
-36 190 -45 285 -23 35 9 69 13 74 10 5 -4 6 -1 3 4 -4 6 6 16 22 23 16 6 37
20 47 31 9 10 21 16 27 12 5 -3 7 -2 4 4 -3 5 4 20 16 34 12 14 23 29 24 34 1
6 13 42 28 80 43 115 64 175 99 275 19 52 40 109 46 125 7 17 14 35 16 40 4
18 94 269 103 290 5 11 16 40 23 65 41 130 123 338 131 333 6 -3 7 -1 3 6 -7
10 9 72 25 96 3 6 12 31 19 57 7 26 15 46 19 44 3 -2 7 7 8 21 0 14 5 28 10
32 4 3 9 15 10 26 2 31 48 146 55 139 4 -3 4 3 1 15 -3 13 -1 21 6 21 7 0 10
4 6 9 -5 9 13 59 25 71 3 3 6 16 8 30 1 13 6 27 10 30 4 3 8 12 9 20 4 33 47
139 55 134 4 -3 5 1 2 9 -3 8 8 50 24 93 17 44 35 96 42 117 6 20 16 35 21 32
5 -4 7 0 4 7 -3 7 7 45 21 83 14 39 33 92 42 119 l16 49 13 -39 c7 -21 11 -44
8 -52 -2 -7 -1 -11 4 -8 13 9 146 -358 135 -375 -4 -7 -3 -9 2 -6 5 3 20 -25
33 -61 12 -37 26 -76 31 -87 25 -62 31 -85 24 -96 -4 -7 -3 -10 2 -6 6 3 23
-33 39 -81 16 -48 33 -93 38 -99 5 -7 7 -13 3 -13 -4 0 1 -14 9 -31 9 -17 25
-57 35 -90 11 -32 23 -66 28 -76 6 -10 12 -29 13 -43 2 -14 7 -27 10 -30 3 -3
20 -48 38 -100 18 -52 37 -104 41 -115 23 -56 89 -243 92 -260 2 -11 7 -23 12
-26 5 -4 9 -20 10 -37 0 -17 4 -28 8 -26 4 2 10 -6 13 -18 4 -13 25 -72 46
-131 22 -60 36 -114 33 -120 -4 -7 -3 -9 1 -5 11 10 47 -91 38 -106 -3 -6 -2
-8 2 -3 7 5 44 -82 59 -138 2 -5 8 -23 15 -38 6 -16 9 -32 6 -37 -3 -5 0 -10
6 -12 6 -2 12 -15 12 -30 1 -14 5 -24 10 -21 6 4 11 -15 10 -44 -1 -7 3 -11 7
-8 5 3 11 -3 14 -13 14 -44 132 -132 177 -132 11 0 19 -3 19 -7 0 -7 49 -12
162 -16 25 -1 44 1 41 6 -2 4 6 7 19 7 13 0 30 4 38 10 9 5 19 5 27 -2 10 -8
12 -7 8 3 -3 9 6 19 26 28 27 12 127 101 121 108 -4 6 11 63 18 63 12 0 -5 81
-34 160 -15 41 -32 89 -38 105 -5 17 -13 39 -18 50 -5 11 -32 85 -60 165 -28
80 -59 168 -70 195 -28 78 -65 179 -66 185 0 3 -4 12 -7 20 -4 8 -25 67 -47
130 -23 63 -47 129 -53 145 -7 17 -12 32 -13 35 0 3 -4 12 -7 20 -4 8 -20 56
-37 105 -17 50 -35 99 -39 110 -14 32 -93 249 -96 265 -4 17 -165 462 -202
559 -14 35 -26 71 -28 80 -4 14 -109 305 -165 456 -10 28 -35 97 -55 155 -20
58 -39 112 -43 120 -3 8 -6 17 -7 20 -1 3 -6 16 -12 30 -6 14 -31 86 -57 160
-60 171 -77 208 -112 244 -87 87 -211 122 -362 103z"/>
<path d="M4077 3859 c-122 -28 -236 -148 -254 -269 -7 -44 -7 -2832 0 -2883
10 -73 104 -201 169 -228 15 -6 26 -14 24 -18 -2 -3 6 -7 17 -7 30 -3 55 -9
63 -16 3 -4 12 -4 20 -1 8 3 22 -1 31 -8 11 -9 14 -10 10 -2 -6 9 3 12 30 11
21 -1 47 3 58 9 11 5 30 9 42 8 13 -1 21 0 18 3 -2 3 15 17 38 32 44 28 97 83
97 100 0 5 4 10 8 10 5 0 15 18 22 40 7 22 16 40 19 40 4 0 7 10 8 23 6 70 4
2840 -1 2877 -19 125 -123 244 -241 275 -44 11 -135 13 -178 4z"/>
</g>
</svg>
