<svg xmlns="http://www.w3.org/2000/svg" viewBox="0 0 464 400"><defs><style>.a{fill:#293347;}</style></defs><g transform="translate(-18 -88)"><path class="a" d="M424,32H40A40.045,40.045,0,0,0,0,72V328a40.045,40.045,0,0,0,40,40H192v24a40,40,0,0,0,80,0V368H424a40.045,40.045,0,0,0,40-40V72A40.045,40.045,0,0,0,424,32ZM224,240V384H208V240Zm-11.056-16L232,185.888,251.056,224ZM232,416a23.967,23.967,0,0,1-22.528-16H254.52A23.949,23.949,0,0,1,232,416Zm24-32H240V240h16Zm192-56a24.029,24.029,0,0,1-24,24H272V232a7.92,7.92,0,0,0-.792-3.36c-.032-.072-.016-.152-.048-.216l-32-64c-2.72-5.424-11.592-5.424-14.312,0l-32,64c-.032.072-.016.152-.048.216A7.809,7.809,0,0,0,192,232V352H40a24.029,24.029,0,0,1-24-24V112H448Zm0-232H16V72A24.029,24.029,0,0,1,40,48H424a24.029,24.029,0,0,1,24,24Z" transform="translate(18 56)"/><path class="a" d="M104.088,64H104a8.044,8.044,0,1,0,.088,0Z" transform="translate(18 56)"/><path class="a" d="M72.088,64H72a8.044,8.044,0,1,0,.088,0Z" transform="translate(18 56)"/><path class="a" d="M40.088,64H40a8.044,8.044,0,1,0,.088,0Z" transform="translate(18 56)"/><path class="a" d="M174,160H38.762C35.022,160,32,163.576,32,168s3.022,8,6.762,8H174c3.739,0,6.762-3.576,6.762-8S177.735,160,174,160Z" transform="translate(18 56)"/><path class="a" d="M424,128H40a8,8,0,0,0,0,16H424a8,8,0,0,0,0-16Z" transform="translate(18 56)"/></g></svg>