<svg xmlns="http://www.w3.org/2000/svg" viewBox="0 0 511.903 511.882"><defs><style>.a{fill:#5277f0;}</style></defs><g transform="translate(-1 -0.011)"><path class="a" d="M449.975,291.041a8.546,8.546,0,0,0-2.833,11.733c49.408,80.862,62.4,148.787,33.92,177.272-33.679,33.679-117.611,8.444-209.39-55.226a804.779,804.779,0,0,0,82.171-71.989c132.42-132.42,193.6-278.707,139.281-333.03C457.95-15.357,383.1-3.18,292.924,52.432a8.531,8.531,0,1,0,8.952,14.524C383.634,16.55,452.276,3.1,481.059,31.875c45.969,45.969-17.818,187.418-139.281,308.89a761.027,761.027,0,0,1-84.8,72.832,761.263,761.263,0,0,1-84.808-72.832C50.7,219.293-13.086,77.844,32.883,31.875S220.3,49.684,341.773,171.156c9.362,9.362,33.064,33.489,49.322,50.669H359.372a8.533,8.533,0,0,0,0,17.066h51.2c.036,0,.071-.005.107-.005.169,0,.338-.013.507-.026.115-.008.232-.014.346-.026.156-.018.311-.045.466-.071.123-.021.247-.038.368-.064.143-.031.283-.071.424-.109s.258-.066.384-.106.265-.1.4-.145.257-.093.382-.147.249-.119.374-.18.253-.121.375-.189.23-.138.344-.209.25-.152.37-.235.21-.156.314-.235c.12-.092.241-.183.356-.28.032-.027.066-.049.1-.077.07-.062.131-.13.2-.193.109-.1.217-.2.321-.311s.185-.2.274-.3.188-.216.277-.329.164-.215.243-.325.168-.238.247-.361c.068-.106.133-.214.2-.322.08-.137.156-.275.228-.416.05-.1.1-.2.143-.3q.109-.237.206-.482c.034-.087.065-.174.1-.261q.094-.267.171-.541c.022-.079.042-.158.061-.238.047-.188.088-.378.122-.572.014-.082.026-.165.038-.247.027-.188.051-.377.065-.568.007-.1.01-.189.014-.284.006-.126.019-.251.019-.378v-51.2a8.533,8.533,0,1,0-17.066,0v29.414c-16.4-17.273-39.071-40.354-48.2-49.482C221.427,26.67,75.14-34.514,20.817,19.8s6.861,200.61,139.281,333.03a804.669,804.669,0,0,0,82.171,71.991c-90.775,63.665-175.705,88.9-209.39,55.224-27.6-27.6-16.436-92.164,27.826-168.44v21.153a8.533,8.533,0,0,0,17.066,0v-51.2c0-.023,0-.044,0-.067,0-.124-.012-.247-.019-.37-.008-.165-.013-.33-.031-.492,0-.01,0-.021,0-.031a8.465,8.465,0,0,0-.959-3.077.116.116,0,0,0,0-.011c-.064-.119-.139-.232-.209-.347a8.479,8.479,0,0,0-2.4-2.583c-.049-.035-.1-.073-.145-.106-.026-.018-.049-.038-.075-.055-.14-.092-.286-.169-.429-.251-.074-.043-.145-.089-.221-.129-.177-.1-.357-.178-.538-.259-.072-.032-.143-.068-.216-.1-.195-.081-.392-.15-.59-.216-.065-.021-.128-.046-.193-.066-.215-.066-.431-.119-.648-.167-.054-.012-.107-.027-.161-.038-.237-.047-.475-.082-.714-.109-.041-.005-.08-.012-.121-.016q-.395-.039-.789-.04c-.019,0-.038,0-.058,0h-.029c-.043,0-.085,0-.128,0H18.038a8.533,8.533,0,1,0,0,17.066H53.694c-55.558,89.956-68.305,166.6-32.881,202.02,13.414,13.406,32.418,19.78,55.441,19.78,47.722,0,112.692-28.638,180.719-77.468C325,483.261,389.964,511.9,437.688,511.893c23.014,0,42.035-6.374,55.441-19.78,34.867-34.867,23.125-108.971-31.42-198.238A8.543,8.543,0,0,0,449.975,291.041Z"/></g></svg>