<svg xmlns="http://www.w3.org/2000/svg" viewBox="0 0 527.261 511.999"><defs><style>.a{fill:#5277f0;}</style></defs><path class="a" d="M267.752,510.615A16.533,16.533,0,0,1,262,506.461c-2.084-2.322-21.081-23.606-45.778-55.649-14.131-18.333-27.484-36.757-39.687-54.76-15.107-22.285-28.522-44.038-39.872-64.652l102.928-59.425a92.558,92.558,0,0,0,34.833,6.745c46.21,0,85.921-34.474,92.374-80.187l89.071-51.426a186.06,186.06,0,0,1,3.982,38.32c0,126.914-165.939,313.168-173,321.035a16.73,16.73,0,0,1-19.1,4.154ZM14.25,335.682A28.5,28.5,0,0,1,24.682,296.75L494.933,25.25a28.5,28.5,0,1,1,28.5,49.363L53.182,346.113A28.487,28.487,0,0,1,14.25,335.682Zm79.1-112.064h0A184.635,184.635,0,0,1,89,185.426C89,83.182,172.183,0,274.427,0a184.334,184.334,0,0,1,97.341,27.657,187.058,187.058,0,0,1,26.528,19.9L309.345,98.913a92.577,92.577,0,0,0-34.918-6.779c-46.255,0-85.972,34.512-92.387,80.278L93.347,223.619h0Z" transform="translate(-10.427)"/></svg>