<svg xmlns="http://www.w3.org/2000/svg" viewBox="0 0 325.041 305.714"><defs><style>.a{fill:#5277f0;}</style></defs><path class="a" d="M322.527,12.2a8.832,8.832,0,0,0-6.5-2.535c-4.23,0-17.1,0-96.105,67.513-32.9,28.115-70.3,62.189-101.975,92.75-.021.021-.047.034-.068.056s-.028.037-.045.054C108.655,178.893,99.965,187.45,92,195.481c-49.3,5.987-55.7,37.56-60.849,62.994-4.418,21.811-7.564,33.278-25.637,34.735A6.066,6.066,0,0,0,3.7,304.837c1.02.426,25.324,10.541,53.75,10.541h.01c31.21,0,70.925-12.289,83.776-69.823,37.5-38.058,85.295-91.189,122.2-135.857,20.3-24.57,35.9-44.828,46.372-60.211C324.732,27.557,328.06,17.8,322.527,12.2ZM122,182.7l31.977,32.364c-6.3,6.646-12.424,13.018-18.282,19L103.233,201.2C109.143,195.274,115.438,189.073,122,182.7ZM57.457,303.377h-.009c-12.082,0-20.837-5.341-29.632-7.524,11.79-8.469,12.242-20.8,15.1-34.907,5.017-24.764,9.759-48.222,49.659-53.384l36.562,37.079C119.891,283.524,95.791,303.377,57.457,303.377Zm191.728-195.3c-26.36,31.61-58.044,67.33-86.973,98.241L130.64,174.364c30.51-29.266,65.794-61.332,97.011-88.011,54.185-46.306,75.8-59.491,83.939-63.226C307.948,31.325,294.992,53.149,249.185,108.079Z" transform="translate(0 -9.664)"/></svg>